# xmcd
#
# Track frame offsets:
# 150
# 2507
# 18232
# 32772
# 50865
# 67550
# 87992
# 101910
# 116647
# 122800
# 135297
# 148872
# 172495
# 189560
# 204675
# 220140
# 233222
#
# Disc length: 3303 seconds
#
#
# Revision: 0
# Processed by: cddbd v1.5.2PL0 Copyright (c) Steve Scherf et al.
# Submitted via: FreeRIP 2.96 
#
DISCID=f60ce511
DTITLE=Andy Wilkinson - Deep In The Heart
DYEAR=1992
DGENRE=Country
TTITLE0=Deep In The Heart
TTITLE1=Angels Can Do No More
TTITLE2=Angle On The Running Board
TTITLE3=The Hand-made Gift
TTITLE4=The Storm Cellar Songs
TTITLE5=Sandstone Champagne
TTITLE6=Tonto Needs A Job
TTITLE7=Leave It In The Hands Of Fate
TTITLE8=Homecoming, 1965
TTITLE9=First Time, Long Time Ago
TTITLE10=Cut Me
TTITLE11=Dust-devil Angel
TTITLE12=West Texas Wine
TTITLE13=Farm Girl
TTITLE14=Easy Chair
TTITLE15=Neon-light Cross
TTITLE16=North Of Forty
EXTD=
EXTT0=
EXTT1=
EXTT2=
EXTT3=
EXTT4=
EXTT5=
EXTT6=
EXTT7=
EXTT8=
EXTT9=
EXTT10=
EXTT11=
EXTT12=
EXTT13=
EXTT14=
EXTT15=
EXTT16=
PLAYORDER=
